<?xml version="1.0" encoding="UTF-8" standalone="no"?>
<!-- Created with Inkscape (http://www.inkscape.org/) -->

<svg
   width="32.731255mm"
   height="11.381605mm"
   viewBox="0 0 32.731255 11.381605"
   version="1.1"
   id="svg1"
   xml:space="preserve"
   xmlns="http://www.w3.org/2000/svg"
   xmlns:svg="http://www.w3.org/2000/svg"><defs
     id="defs1"><clipPath
       id="116e1a679d"><path
         d="M 0.496094,0.332031 H 30.007812 V 32.804688 H 0.496094 Z m 0,0"
         clip-rule="nonzero"
         id="path2" /></clipPath><clipPath
       id="0b80128809"><path
         d="M 32,5 H 93.65625 V 28 H 32 Z m 0,0"
         clip-rule="nonzero"
         id="path3" /></clipPath><clipPath
       id="c673f20cdd"><path
         d="m 52,8 h 9.65625 V 20 H 52 Z m 0,0"
         clip-rule="nonzero"
         id="path4" /></clipPath><clipPath
       id="cb90233b97"><rect
         x="0"
         width="62"
         y="0"
         height="23"
         id="rect4" /></clipPath></defs><g
     id="layer1"
     transform="translate(-88.409369,-142.74044)"><g
       clip-path="url(#clipPath36)"
       id="g34"
       transform="matrix(0.35277779,0,0,0.35277779,88.204226,142.62193)"><g
         clip-path="url(#116e1a679d)"
         id="g5"><path
           fill="#10bd68"
           d="m 9.890625,29.101562 c -0.050781,0.08203 -0.097656,0.160157 -0.152344,0.25 C 9.410156,29.191406 9.085938,29.035156 8.761719,28.875 7.480469,28.246094 6.203125,27.597656 4.910156,26.996094 4.296875,26.710938 3.648438,26.511719 2.988281,26.265625 c 0.398438,-0.1875 0.796875,-0.375 1.195313,-0.558594 C 3.757812,25.652344 3.34375,25.632812 2.941406,25.542969 2.292969,25.402344 1.65625,25.203125 1.09375,24.828125 0.546875,24.46875 0.425781,23.914062 0.789062,23.417969 0.871094,23.304688 0.972656,23.207031 1.074219,23.117188 1.1875,23.019531 1.316406,22.941406 1.445312,22.851562 1.390625,22.796875 1.328125,22.742188 1.277344,22.691406 0.878906,22.289062 0.882812,21.753906 1.324219,21.410156 1.582031,21.207031 1.890625,21.046875 2.203125,20.925781 3.101562,20.5625 4.035156,20.535156 4.980469,20.683594 c 0.273437,0.04297 0.546875,0.09766 0.820312,0.148437 0.054688,0.01172 0.113281,0.01563 0.179688,0.02344 -0.246094,-0.714844 0.242187,-1.324219 1.125,-1.453125 -0.335938,-0.125 -0.671875,-0.09375 -1.011719,-0.01563 C 6.238281,19.152344 6.398438,19.078125 7.199219,18.882812 6.578125,18.390625 6.421875,18.042969 6.546875,17.457031 6.667969,17.617188 6.773438,17.792969 6.914062,17.933594 7.3125,18.332031 7.902344,18.269531 8.25,17.792969 7.664062,17.488281 7.316406,17.007812 7.261719,16.34375 7.226562,15.929688 7.335938,15.546875 7.570312,15.195312 c -0.00391,0.109376 -0.015624,0.21875 -0.015624,0.328126 0.015624,0.492187 0.351562,0.855468 0.796874,0.859374 0.4375,0.0039 0.847657,-0.398437 0.851563,-0.863281 0.00391,-0.15625 -0.058594,-0.308593 -0.09375,-0.464843 C 9.042969,14.757812 8.972656,14.460938 8.890625,14.113281 8.847656,14.386719 8.808594,14.621094 8.773438,14.867188 8.570312,14.460938 8.542969,14.046875 8.730469,13.632812 8.808594,13.464844 8.929688,13.316406 9.015625,13.148438 9.121094,12.9375 9.238281,12.71875 9.300781,12.492188 9.339844,12.351562 9.289062,12.1875 9.273438,12.03125 c -0.015626,-0.207031 0,-0.425781 -0.066407,-0.617188 C 9.144531,11.230469 8.949219,11.089844 8.886719,10.902344 8.703125,10.371094 8.945312,9.953125 9.304688,9.585938 9.8125,9.066406 10.449219,8.746094 11.105469,8.464844 c 1.910156,-0.8125 3.910156,-1.125 5.976562,-1.035156 0.726563,0.03125 1.453125,0.058593 2.148438,0.273437 0.410156,0.128906 0.800781,0.316406 1.136719,0.453125 C 20.160156,7.964844 19.835938,7.832031 19.507812,7.707031 18.820312,7.445312 18.101562,7.320312 17.371094,7.269531 15.5,7.140625 13.671875,7.355469 11.890625,7.949219 11.027344,8.242188 10.214844,8.625 9.515625,9.222656 9.230469,9.464844 8.984375,9.730469 8.839844,10.109375 8.8125,10.054688 8.792969,10.015625 8.773438,9.976562 8.261719,8.972656 7.789062,7.945312 7.222656,6.972656 6.960938,6.527344 6.777344,6.097656 6.75,5.589844 6.738281,5.390625 6.683594,5.191406 6.644531,4.972656 7.074219,5.179688 7.484375,5.371094 7.886719,5.574219 7.929688,5.59375 7.949219,5.683594 7.957031,5.742188 8.019531,6.089844 8.078125,6.441406 8.140625,6.789062 8.15625,6.859375 8.203125,6.925781 8.25,7.035156 8.304688,6.8125 8.410156,6.726562 8.597656,6.742188 8.644531,6.746094 8.703125,6.691406 8.738281,6.648438 8.933594,6.410156 9.054688,6.398438 9.285156,6.621094 9.296875,6.632812 9.3125,6.640625 9.371094,6.636719 9.277344,6.347656 9.214844,6.050781 9.089844,5.777344 8.964844,5.507812 8.78125,5.265625 8.617188,4.996094 8.945312,4.542969 8.96875,3.953125 9.144531,3.378906 c 0.355469,0.257813 0.695313,0.5 1.03125,0.753906 0.03125,0.023438 0.03125,0.109376 0.02344,0.160157 -0.07031,0.4375 -0.0625,0.867187 0.109375,1.28125 0.03906,0.089843 0.09375,0.175781 0.160156,0.257812 -0.07422,-0.289062 -0.03906,-0.539062 0.234375,-0.703125 0.230469,-0.140625 0.472656,-0.148437 0.699219,0 0.242187,0.160156 0.359375,0.382813 0.292968,0.695313 C 11.75,5.800781 11.792969,5.785156 11.875,5.753906 11.824219,5.84375 11.792969,5.90625 11.746094,5.992188 11.972656,5.894531 12.140625,5.761719 12.140625,5.527344 12.144531,5.261719 12.148438,4.992188 12.085938,4.738281 11.96875,4.257812 11.945312,3.816406 12.25,3.378906 c 0.214844,-0.308594 0.351562,-0.671875 0.527344,-1.007812 0.02734,-0.050782 0.05859,-0.101563 0.105468,-0.175782 0.06641,0.085938 0.121094,0.160157 0.171876,0.226563 0.277343,0.359375 0.609374,0.652344 1.007812,0.875 0.121094,0.066406 0.234375,0.078125 0.359375,0.015625 0.472656,-0.230469 0.949219,-0.464844 1.425781,-0.695312 -0.01172,-0.015626 -0.02344,-0.027344 -0.03906,-0.042969 0,-0.09375 -0.0039,-0.191407 0.0039,-0.285157 0.01172,-0.128906 -0.04687,-0.171874 -0.167969,-0.164062 -0.101562,0.00391 -0.203125,0 -0.324219,0 0,-0.226562 0,-0.433594 0,-0.660156 0.164063,-0.011719 0.335938,-0.023438 0.515626,-0.035156 0.03906,-0.390626 -0.136719,-0.832032 0.304687,-1.09375 0.28125,0.191406 0.410156,0.433593 0.3125,0.789062 -0.07422,0.265625 -0.02734,0.304688 0.242187,0.300781 0.144532,-0.00391 0.289063,0 0.453126,0 0,0.210938 0,0.421875 0,0.652344 -0.125,0.015625 -0.257813,0.027344 -0.425782,0.046875 0.05469,0.089844 0.08984,0.160156 0.136719,0.222656 0.328125,0.4375 0.726563,0.800782 1.210937,1.070313 0.0625,0.035156 0.121094,0.109375 0.148438,0.175781 0.238281,0.621094 0.644531,1.125 1.085938,1.675781 0,-0.316406 0.01172,-0.578125 -0.0039,-0.84375 -0.01172,-0.175781 -0.07031,-0.355469 -0.09766,-0.53125 -0.0078,-0.050781 0.01172,-0.125 0.04687,-0.148437 0.5,-0.351563 0.910156,-0.789063 1.222656,-1.355469 0.07813,0.199219 0.144532,0.371094 0.210938,0.542969 0.105468,0.25 0.207031,0.5 0.3125,0.75 0.08203,0.191406 0.15625,0.386718 0.417968,0.402344 -0.148437,0.289062 -0.28125,0.554687 -0.417968,0.820312 0.0078,0.015625 0.01563,0.027344 0.02344,0.042969 0.234375,-0.074219 0.453125,-0.070313 0.527344,0.191406 0.05469,0.1875 0.04687,0.394531 0.06641,0.59375 0.140625,-0.265625 0.199219,-0.566406 0.191407,-0.875 -0.0039,-0.171875 0.04687,-0.257813 0.207031,-0.335937 0.238281,-0.113282 0.445312,-0.277344 0.671875,-0.425782 -0.03906,0.222656 -0.07813,0.449219 -0.117188,0.675782 -0.0039,0.00781 -0.0039,0.015624 -0.0039,0.019531 0.02344,0.839843 -0.429688,1.554687 -0.609375,2.339843 -0.136719,0.585938 -0.324219,1.164063 -0.480469,1.746094 -0.01563,0.066406 -0.0039,0.152344 0.01953,0.222656 0.113281,0.355469 0.101562,0.6875 -0.125,1 -0.0078,0.0078 -0.02344,0.01953 -0.01953,0.02734 0.0039,0.359375 -0.140625,0.742188 0.08984,1.070313 0.160156,0.234375 0.167969,0.4375 0.04687,0.675781 -0.0625,0.113281 -0.109375,0.238281 -0.160156,0.363281 -0.171875,0.402344 -0.203125,0.800781 -0.02344,1.226563 0.1875,0.441406 0.21875,0.902344 0.101563,1.382812 -0.105469,0.441406 -0.0625,0.886719 0.113281,1.3125 0.128906,0.304688 0.339844,0.519532 0.683594,0.542969 0.355469,0.02344 0.660156,-0.105469 0.859375,-0.40625 0.08203,-0.125 0.109375,-0.289063 0.171875,-0.46875 0.03906,0.136719 0.09375,0.265625 0.105469,0.394531 0.03906,0.609375 -0.226563,1.113282 -0.601563,1.566406 -0.160156,0.195313 -0.335937,0.378907 -0.523437,0.585938 0.207031,0.261719 0.21875,0.632812 0.296874,0.988281 0.05469,0.257813 0.183594,0.507813 0.3125,0.746094 0.128907,0.238281 0.300782,0.449219 0.4375,0.683594 0.07031,0.113281 0.132813,0.121093 0.25,0.07813 0.585938,-0.230469 1.195313,-0.386719 1.820313,-0.445313 0.910156,-0.08203 1.75,0.06641 2.421875,0.746094 0.378906,0.386719 0.613281,0.855469 0.722656,1.378906 0.04297,0.203125 0.125,0.285157 0.335938,0.328125 0.617187,0.125 1.097656,0.441406 1.265625,1.09375 C 30.171875,24.34375 30.109375,24.6875 29.875,25 c -0.253906,0.328125 -0.582031,0.5625 -0.929688,0.769531 -0.25,0.144531 -0.511718,0.269531 -0.757812,0.421875 -0.539062,0.328125 -1.082031,0.65625 -1.609375,1.007813 -0.679687,0.457031 -1.347656,0.933593 -2.023437,1.402343 -0.03906,0.02734 -0.07422,0.05859 -0.121094,0.08984 0.04687,0.05859 0.08984,0.105469 0.148437,0.171875 -0.09375,0.05859 -0.183593,0.117188 -0.273437,0.171875 -0.871094,0.539063 -1.757813,1.054688 -2.707032,1.453125 -0.148437,0.0625 -0.25,0.05469 -0.371093,-0.05078 -0.28125,-0.246094 -0.277344,-0.222656 -0.585938,-0.01953 -1.03125,0.675781 -2.078125,1.324219 -3.09375,2.015625 -0.324219,0.222656 -0.554687,0.203125 -0.898437,0.04297 -0.796875,-0.375 -1.625,-0.675781 -2.4375,-1.007812 -1.5,-0.609375 -2.921875,-1.359375 -4.234375,-2.304688 C 9.960938,29.140625 9.925781,29.125 9.890625,29.101562 Z M 13.742188,6.894531 c -0.01172,0.054688 -0.02344,0.113281 -0.04297,0.207031 0.08203,-0.054687 0.128906,-0.085937 0.1875,-0.125 -0.01172,0.066407 -0.01953,0.113282 -0.02344,0.136719 0.769531,-0.09375 1.53125,-0.1875 2.292969,-0.28125 -0.02734,-0.238281 -0.07813,-0.289062 -0.285156,-0.292969 -0.05078,0 -0.09766,0 -0.148438,0.00391 -0.625,0.082031 -1.25,0.164062 -1.875,0.25 -0.02734,0 -0.05078,0.027343 -0.07813,0.042969 0.07031,-0.175782 0.140625,-0.355469 0.210938,-0.535157 -0.222657,0.109375 -0.316407,0.3125 -0.363281,0.542969 -0.03906,-0.015625 -0.07422,-0.027344 -0.140626,-0.046875 0.03516,0.132813 0.05859,0.234375 0.08594,0.359375 0.07422,-0.105469 0.128906,-0.183594 0.179688,-0.261719 z m -1,4.71875 c -0.457032,0.613281 -0.660157,1.570313 -0.449219,2.191407 0.01953,-0.121094 0.03516,-0.21875 0.04687,-0.3125 0.01172,0 0.01953,0 0.03125,0 0.05469,0.425781 0.113281,0.851562 0.171875,1.304687 0.03906,-0.117187 0.07422,-0.222656 0.109375,-0.324219 0.01172,0 0.02344,0 0.03516,-0.0039 0.04687,0.222656 0.09375,0.445312 0.140625,0.667969 0.01172,0 0.02344,0 0.03516,0 0.03125,-0.101563 0.05859,-0.203125 0.09766,-0.351563 0.09375,0.296875 0.0625,0.539063 -0.03516,0.777344 0.02344,0.0078 0.04297,0.01563 0.0625,0.01953 0.09375,-0.222656 0.191407,-0.445312 0.304688,-0.707031 0.04297,0.25 0.07813,0.46875 0.117187,0.691406 0.0078,0.0039 0.01172,0.0039 0.01953,0.0078 0.02734,-0.128907 0.05078,-0.261719 0.07422,-0.390625 0.0078,0 0.01563,-0.0039 0.02344,-0.0078 0.03516,0.1875 0.07422,0.375 0.117187,0.582031 0.02734,-0.05859 0.05078,-0.101562 0.08594,-0.175781 0.01172,0.117188 0.02344,0.199219 0.03125,0.28125 0.01563,0 0.02734,0 0.04297,0 0.02344,-0.105469 0.04687,-0.214843 0.06641,-0.328125 0.0078,0 0.01953,0.0039 0.02734,0.0039 0.03906,0.15625 0.07812,0.3125 0.121093,0.484376 0.05078,-0.07813 0.09375,-0.144532 0.136719,-0.207032 0.01563,0.0078 0.03516,0.01563 0.05469,0.01953 -0.05078,0.183593 -0.09766,0.363281 -0.152344,0.578124 0.113281,-0.132812 0.210937,-0.242187 0.339844,-0.394531 -0.03906,0.242188 -0.07031,0.441407 -0.101563,0.640625 0.01172,0.0039 0.02344,0.0078 0.03516,0.01172 0.08203,-0.136719 0.164063,-0.273437 0.246094,-0.414063 0.0078,0 0.01563,0.0039 0.02734,0.0078 -0.01953,0.152344 -0.03516,0.304687 -0.05859,0.507813 0.07813,-0.105469 0.128906,-0.171876 0.171875,-0.242188 0.04297,-0.07031 0.08203,-0.152344 0.121094,-0.226562 0.0078,0 0.01563,0.0078 0.02344,0.0078 -0.0078,0.101562 -0.01953,0.199219 -0.03125,0.300781 0.01953,0.0078 0.03516,0.01172 0.05078,0.01563 0.04297,-0.117187 0.08984,-0.238281 0.136719,-0.367187 0.01172,0.03125 0.01953,0.05469 0.02734,0.07813 0.01172,0.02344 0.02344,0.04687 0.03906,0.08203 0.65625,-0.589844 1.316406,-1.132813 2.292968,-1.070313 -0.441406,-0.507812 -0.25,-1.046874 0.386719,-1.195312 -0.07031,0.06641 -0.125,0.117188 -0.179687,0.171875 -0.06641,0.0625 -0.136719,0.121094 -0.195313,0.191406 -0.128906,0.160157 -0.144531,0.398438 -0.04687,0.558594 0.109375,0.175781 0.277344,0.265625 0.398438,0.238281 -0.03906,-0.09766 -0.132813,-0.210937 -0.109376,-0.296875 0.01563,-0.07813 0.15625,-0.136719 0.25,-0.179687 0.109376,-0.05078 0.234376,-0.0625 0.347657,-0.105469 0.113281,-0.04687 0.1875,-0.02734 0.28125,0.0625 0.285156,0.289063 0.6875,0.246094 0.835937,-0.105469 0.0625,-0.148437 0.07031,-0.355468 0.01953,-0.507812 -0.222657,-0.65625 -0.460938,-1.304688 -0.71875,-1.949219 -0.07813,-0.199219 -0.08203,-0.363281 0.02344,-0.542969 0.113281,-0.191406 0.214844,-0.386718 0.320313,-0.578125 0.08594,0.269531 0.265624,0.464844 0.582031,0.386719 0.402343,-0.09375 0.792969,-0.226562 1.203125,-0.347656 C 20.582031,10.75 20.539062,10.363281 20.554688,9.96875 20.5625,9.820312 20.507812,9.714844 20.390625,9.652344 20.160156,9.523438 19.929688,9.386719 19.683594,9.292969 18.730469,8.9375 17.730469,8.820312 16.71875,8.792969 15.992188,8.773438 15.269531,8.828125 14.558594,8.984375 14.53125,8.988281 14.507812,9 14.472656,9.011719 c 0.03906,0.019531 0.0625,0.027343 0.105469,0.046875 -0.546875,0.320312 -1.113281,0.542968 -1.710937,0.679687 0.0039,0.015625 0.0078,0.03125 0.01172,0.050781 0.371094,-0.078124 0.738282,-0.15625 1.113282,-0.230468 0,0.00781 0.0039,0.019531 0.0039,0.03125 -0.238282,0.0625 -0.480469,0.125 -0.726563,0.1875 0,0.015625 0,0.027344 0,0.039062 0.203125,0 0.40625,0 0.609375,0 0,0.019532 0.0039,0.035156 0.0078,0.050782 -0.183594,0.101562 -0.367188,0.195312 -0.546875,0.300781 -0.04297,0.02734 -0.07031,0.08203 -0.136719,0.160156 0.265625,0 0.46875,0 0.648437,0 -0.515624,0.347656 -1.042968,0.703125 -1.582031,1.070313 0.04687,0.04297 0.06641,0.07031 0.08984,0.08203 0.121094,0.04297 0.246094,0.08594 0.382813,0.132812 z M 5.308594,24.523438 c -0.00781,0.02344 -0.011719,0.04687 -0.015625,0.06641 1.648437,1.179687 3.300781,2.351562 5.109375,3.28125 1.128906,0.578125 2.308594,1.003906 3.546875,1.269531 1.941406,0.417969 3.882812,0.398437 5.828125,0.05078 0.203125,-0.03516 0.40625,-0.07422 0.609375,-0.109375 0,-0.01172 -0.0039,-0.02344 -0.0039,-0.03516 -1.421874,-0.183594 -2.84375,-0.367187 -4.265624,-0.554687 0.05859,-0.03906 0.113281,-0.03906 0.167968,-0.03906 0.664063,0.02344 1.324219,0.06641 1.988282,0.06641 1.886718,0 3.65625,-0.46875 5.300781,-1.382812 1.054687,-0.585938 2.085937,-1.210938 3.128906,-1.816407 0.179687,-0.105468 0.359375,-0.207031 0.566406,-0.324218 -0.04687,-0.0039 -0.0625,-0.0078 -0.07031,-0.0039 -0.09375,0.02734 -0.183594,0.05859 -0.277344,0.08594 -1.007813,0.300781 -1.980469,0.675781 -2.898437,1.203125 -1.078126,0.613281 -2.242188,1.007812 -3.464844,1.222656 -2.195313,0.390625 -4.402344,0.441406 -6.609375,0.105469 C 12.453125,27.382812 11.054688,26.910156 9.832031,25.996094 9.757812,25.941406 9.675781,25.898438 9.59375,25.867188 8.675781,25.539062 7.761719,25.195312 6.832031,24.894531 6.335938,24.730469 5.816406,24.644531 5.308594,24.523438 Z M 6.4375,21.050781 c -0.011719,0.01953 -0.023438,0.03516 -0.035156,0.05469 0.28125,0.136719 0.578125,0.246093 0.839844,0.410156 0.800781,0.507813 1.597656,1.019531 2.371093,1.566406 1.238281,0.871094 2.476563,1.742188 3.84375,2.410157 1.582031,0.777343 3.25,1.242187 5.015625,1.34375 1.355469,0.07812 2.6875,-0.05859 4.015625,-0.292969 1.042969,-0.183594 1.941407,-0.636719 2.742188,-1.3125 0.04687,-0.03906 0.08594,-0.08203 0.128906,-0.128907 -0.597656,0.488282 -1.265625,0.832032 -2.019531,1.0625 0.02344,-0.02344 0.03125,-0.03125 0.03906,-0.03906 0.04297,-0.01953 0.08594,-0.03906 0.128906,-0.05859 0.636719,-0.289062 1.242188,-0.617187 1.695313,-1.175781 0.527344,-0.648437 0.980469,-1.34375 1.394531,-2.066406 0.01563,-0.01953 0.01563,-0.04687 0.03516,-0.101563 -1.457031,1.476563 -3,2.761719 -4.992187,3.390625 1.703125,-0.714843 2.734375,-2.105469 3.667969,-3.601562 -0.04297,0.01953 -0.07813,0.05078 -0.113282,0.07813 -0.386718,0.347656 -0.765624,0.699218 -1.15625,1.039062 -0.96875,0.828125 -2,1.554688 -3.183593,2.054688 -0.800781,0.335937 -1.648438,0.488281 -2.484375,0.703125 -0.07422,0.01953 -0.15625,0.01563 -0.234375,0.0078 C 16.777344,26.265625 15.46875,25.933594 14.257812,25.308594 13.21875,24.773438 12.214844,24.167969 11.203125,23.582031 10.167969,22.984375 9.152344,22.359375 8.101562,21.785156 7.574219,21.492188 6.992188,21.292969 6.4375,21.050781 Z m 6.351562,0.921875 c -0.445312,-0.4375 -0.828124,-0.863281 -1.0625,-1.402344 -0.136718,-0.304687 -0.265624,-0.609374 -0.410156,-0.910156 -0.04297,-0.08984 -0.117187,-0.164062 -0.199218,-0.28125 -0.59375,0.917969 -1.15625,1.800782 -1.730469,2.691406 1.738281,1.328126 3.550781,2.5 5.652343,3.171876 -0.464843,-0.335938 -0.898437,-0.699219 -1.214843,-1.167969 0.371093,0.210937 0.734375,0.441406 1.121093,0.625 0.449219,0.214843 0.929688,0.34375 1.433594,0.304687 0.167969,-0.01172 0.332032,-0.05859 0.542969,-0.101562 -0.585937,-0.542969 -1.304687,-0.804688 -1.769531,-1.421875 -0.04297,0.230469 -0.08203,0.429687 -0.117188,0.597656 -0.210937,-0.3125 -0.421875,-0.617187 -0.625,-0.925781 -0.113281,-0.175782 -0.21875,-0.355469 -0.304687,-0.542969 -0.07422,-0.160156 -0.117188,-0.332031 -0.171875,-0.496094 -0.01563,0 -0.02734,0.0039 -0.03906,0.0078 0,0.234375 0,0.472656 0,0.710937 -0.652343,-0.339843 -0.90625,-0.96875 -1.203125,-1.570312 0.02734,0.21875 0.05859,0.4375 0.09766,0.710937 z M 9.109375,10.636719 c 0.019531,0.0039 0.035156,0.0078 0.050781,0.01172 0.460938,-0.515626 1.050782,-0.839844 1.667969,-1.117188 1.199219,-0.539062 2.457031,-0.847656 3.753906,-1.035156 1.253907,-0.179688 2.511719,-0.214844 3.769531,-0.035156 0.523438,0.074218 1.042969,0.183593 1.566407,0.269531 0.109375,0.015625 0.226562,0 0.339843,0 0.0078,-0.015625 0.01563,-0.035157 0.02344,-0.054688 C 20.210938,8.597656 20.15625,8.5 20.070312,8.445312 19.859375,8.308594 19.644531,8.171875 19.414062,8.066406 18.65625,7.722656 17.847656,7.597656 17.023438,7.554688 15.484375,7.480469 13.984375,7.714844 12.496094,8.085938 11.605469,8.308594 10.765625,8.644531 10.015625,9.1875 9.65625,9.453125 9.335938,9.753906 9.195312,10.195312 9.148438,10.335938 9.136719,10.488281 9.109375,10.636719 Z m 4.21875,-5.144531 c 0.210937,0.292968 0.507813,0.492187 0.824219,0.664062 0.265625,0.140625 0.550781,0.214844 0.855468,0.179688 0.480469,-0.058594 0.8125,-0.351563 1.089844,-0.714844 C 16.277344,5.390625 16.414062,5.125 16.566406,4.875 c 0.02344,0.074219 0.04687,0.15625 0.07813,0.234375 0.03516,0.078125 0.08203,0.160156 0.132813,0.234375 0.449218,0.628906 1.09375,0.949219 1.820312,1.121094 0.566406,0.132812 1.125,-0.125 1.417969,-0.632813 C 20.03907,5.789062 20.0625,5.75 20.08985,5.710938 c 0.02734,0.179687 -0.0039,0.355468 0.03125,0.511718 0.117187,0.488282 0.382812,0.882813 0.769531,1.199219 0.101563,0.082031 0.222656,0.144531 0.347656,0.191406 0.0625,0.023438 0.148438,-0.011719 0.222657,-0.019531 0,-0.015625 -0.0039,-0.03125 -0.0039,-0.046875 -0.765625,-0.308594 -1.105469,-0.914063 -1.183593,-1.691406 0.03516,0.050781 0.05078,0.113281 0.06641,0.175781 0.09766,0.347656 0.28125,0.640625 0.578125,0.855469 0.167969,0.121093 0.335937,0.128906 0.484375,0.00781 0.359375,-0.300781 0.507812,-0.707031 0.53125,-1.164062 -0.02734,0.035156 -0.03516,0.074219 -0.04687,0.113281 -0.09375,0.347656 -0.226563,0.675781 -0.527344,0.902344 C 21.257834,6.82031 21.164084,6.85156 21.046897,6.75781 20.58596,6.390623 20.410178,5.867186 20.589866,5.308592 c 0.07422,-0.234375 0.1875,-0.453125 0.289062,-0.683594 0.04687,-0.113281 0.09766,-0.226562 0.164063,-0.371094 -0.328125,0.195313 -0.554688,0.425782 -0.6875,0.742188 -0.0039,-0.070313 0.01172,-0.128906 0.01563,-0.1875 0.02344,-0.261719 0.09766,-0.496094 0.332031,-0.648438 0.02734,-0.015625 0.05469,-0.039062 0.0625,-0.066406 0.01563,-0.054688 0.01563,-0.113281 0.02344,-0.167969 -0.06641,0 -0.164062,-0.019531 -0.1875,0.011719 -0.08203,0.113281 -0.160156,0.238281 -0.199218,0.375 -0.105469,0.375 -0.179688,0.761719 -0.292969,1.136719 -0.160156,0.535156 -0.664063,0.902343 -1.21875,0.875 C 18.089844,6.285156 17.421875,5.957031 16.925781,5.316406 16.75,5.085938 16.699219,4.828125 16.78125,4.582031 c 0.125,0.601563 0.558594,0.914063 1.039062,1.167969 0.488282,0.257812 1,0.363281 1.539063,0.199219 0.710937,-0.21875 1.140625,-1.210938 0.460937,-1.957031 0.07422,0.175781 0.152344,0.3125 0.191407,0.460937 0.03906,0.148437 0.08984,0.320313 0.05078,0.457031 -0.171875,0.613282 -0.511719,1 -1.292969,0.941406 C 18.601562,5.839844 18.429688,5.8125 18.273438,5.757812 17.824219,5.605469 17.433594,5.367188 17.183594,4.945312 17.5625,4.617188 17.488281,4.238281 17.328125,3.847656 17.039062,3.8125 16.59375,4.378906 16.53125,4.652344 16.402344,5.25 16.039062,5.664062 15.507812,5.941406 14.742188,6.339844 13.535156,6.007812 13.296875,5.046875 c -0.0078,-0.023437 -0.02734,-0.042969 -0.07031,-0.113281 0,0.140625 0.0039,0.222656 0,0.304687 -0.01562,0.484375 -0.210937,0.871094 -0.609374,1.152344 -0.3125,0.222656 -0.671876,0.328125 -1.046876,0.363281 -0.40625,0.035156 -0.792968,-0.015625 -1.152343,-0.226562 0.539062,0.433594 1.140625,0.53125 1.761719,0.265625 0.566406,-0.246094 1.039062,-0.617188 1.148437,-1.300781 z m 0.01563,21.566406 c 0.0078,-0.01172 0.01563,-0.02344 0.02734,-0.03516 -0.699219,-0.417969 -1.390625,-0.847657 -2.097656,-1.25 C 10.171875,25.136719 9.023438,24.582031 8.042969,23.75 7.820312,23.566406 7.582031,23.398438 7.34375,23.238281 6.671875,22.785156 5.980469,22.363281 5.167969,22.199219 5.007812,22.164062 4.84375,22.15625 4.683594,22.132812 c -0.00781,0.01563 -0.011719,0.03516 -0.019532,0.05078 0.101563,0.07031 0.203126,0.144531 0.308594,0.210937 1.515625,0.996094 3.035156,1.992188 4.554688,2.984375 0.429687,0.277344 0.847656,0.59375 1.316406,0.789063 0.8125,0.34375 1.664062,0.601562 2.5,0.890625 z m 7.066406,-4.054688 C 20.304688,22.417969 20.203125,21.8125 20.09375,21.207031 c 0.01172,-0.0039 0.02344,-0.0078 0.03516,-0.01172 0.109375,0.296876 0.21875,0.59375 0.3125,0.84375 0.01953,-1.121093 -0.507812,-2.117187 -0.988281,-3.089843 0.113281,0.523437 0.238281,1.082031 0.359375,1.640625 -0.01953,0.0039 -0.03906,0.01172 -0.05469,0.01563 -0.261718,-0.628907 -0.519531,-1.253907 -0.769531,-1.855469 0,0.296875 0,0.621094 0,0.945312 -0.01172,0 -0.02344,0 -0.03516,0 -0.05078,-0.332031 -0.101563,-0.660156 -0.148437,-0.960937 -0.08594,0.375 -0.179688,0.777344 -0.273438,1.179687 -0.01953,-0.0039 -0.03906,-0.0039 -0.05859,-0.0078 0.01953,-0.496094 0.03906,-0.992188 0.05859,-1.488281 -0.117188,0.636719 -0.332031,1.261719 -0.226562,1.925781 0.09766,0.597656 0.5625,1.503906 0.878906,1.6875 C 19.09375,21.75 19,21.453125 18.90625,21.160156 c 0.01953,-0.0078 0.03516,-0.01563 0.05078,-0.02344 0.179688,0.289062 0.355469,0.578125 0.554688,0.898437 -0.08984,-0.5 -0.171875,-0.964844 -0.257813,-1.425781 0.0078,0 0.01563,0.0039 0.01953,0.0039 0.378906,0.800781 0.757812,1.601563 1.136718,2.390625 z m -1.03125,-9.210937 c 0.08594,0.285156 0.15625,0.535156 0.234375,0.78125 0.08594,0.25 0.148438,0.492187 -0.113281,0.671875 0.453125,0.289062 0.886719,0.570312 1.320312,0.847656 -0.0625,-0.441406 0.01563,-0.875 0.183594,-1.296875 0.07422,-0.175781 0.136719,-0.363281 0.175782,-0.550781 0.02734,-0.132813 0.0039,-0.28125 0.0039,-0.421875 -0.01563,0 -0.03125,0 -0.04687,0 -0.03125,0.05469 -0.05859,0.109375 -0.08203,0.152343 -0.113282,-0.226562 -0.230469,-0.457031 -0.34375,-0.6875 -0.04688,-0.09766 -0.121094,-0.132812 -0.234376,-0.121093 -0.328124,0.03125 -0.648437,-0.0039 -0.949218,-0.15625 -0.08203,-0.03906 -0.15625,-0.08984 -0.25,-0.144531 0.08594,0.34375 0.164062,0.65625 0.25,1.015624 -0.07031,-0.04297 -0.09375,-0.05859 -0.148438,-0.08984 z m 1.03125,4.933593 c 0.02344,-0.0078 0.04687,-0.01953 0.07422,-0.02734 -0.02344,-0.144531 -0.0078,-0.308594 -0.07422,-0.421875 -0.199218,-0.335938 -0.429687,-0.65625 -0.652344,-0.976563 -0.332031,-0.480469 -0.84375,-0.421875 -1.335937,-0.445312 -0.269531,-0.01172 -0.511719,0.03906 -0.734375,0.195312 -0.01172,0.01172 -0.02734,0.01953 -0.04297,0.03125 -0.203125,0.128907 -0.402343,0.265625 -0.613281,0.386719 -0.300781,0.175781 -0.628906,0.289062 -1.023438,0.269531 0.226563,0.347657 0.46875,0.601563 0.84375,0.675781 0.402344,0.08203 0.832032,-0.15625 0.992188,-0.527343 0.03906,-0.09766 0.113281,-0.179688 0.179688,-0.28125 -0.03906,-0.05078 -0.09375,-0.117188 -0.148438,-0.1875 0,-0.01953 0.0039,-0.03906 0.0078,-0.05469 0.34375,0 0.6875,-0.0039 1.035157,0 0.02344,0 0.04687,0.02344 0.06641,0.04297 0.03906,0.03125 0.07031,0.08203 0.113281,0.09766 0.06641,0.01953 0.136719,0.01953 0.203125,0.03125 -0.01563,0.01563 -0.02734,0.02734 -0.04297,0.04297 0.04688,0.105469 0.07813,0.226563 0.140626,0.320313 0.105468,0.152343 0.226562,0.296874 0.347656,0.441406 0.07031,0.08203 0.148437,0.15625 0.222656,0.234375 0.0078,-0.0078 0.01563,-0.01563 0.02344,-0.02344 -0.09766,-0.140625 -0.191407,-0.28125 -0.285157,-0.421875 0.01172,-0.0039 0.01953,-0.01172 0.03125,-0.02344 0.226563,0.207031 0.449219,0.414062 0.671875,0.621093 z M 16.046875,4.871094 c -0.347656,0.589844 -1.1875,0.886718 -1.820313,0.632812 -0.363281,-0.148437 -0.535156,-0.425781 -0.492187,-0.8125 0.01563,-0.125 0.05469,-0.25 0.05859,-0.375 0,-0.089844 -0.04687,-0.183594 -0.07422,-0.273437 -0.09375,0.042969 -0.210938,0.058593 -0.273438,0.128906 -0.257812,0.277344 -0.238281,0.707031 0.03906,1.023437 0.382813,0.4375 0.863281,0.660157 1.457031,0.617188 0.816406,-0.058594 1.355469,-0.5 1.519532,-1.257812 0.03125,-0.132813 0.0039,-0.277344 0.0039,-0.414063 -0.01172,0 -0.02734,-0.00391 -0.04297,-0.00391 -0.02734,0.097656 -0.05859,0.195312 -0.08594,0.292969 0,-0.378907 -0.03125,-0.519532 -0.183594,-0.664063 0.01953,0.125 0.04297,0.246094 0.0625,0.367187 -0.01563,0.00391 -0.03125,0.00781 -0.04687,0.011719 -0.0703,-0.105465 -0.144518,-0.207027 -0.22655,-0.332027 -0.101562,0.460938 -0.144531,0.496094 -0.5,0.441406 -0.01172,0.011719 -0.02344,0.023438 -0.03516,0.039063 0.207031,0.1875 0.417969,0.375 0.640625,0.578125 z m -3.164063,11.667968 c 0.06641,0.355469 0.28125,0.589844 0.574219,0.769532 0.703125,0.429687 1.449219,0.585937 2.226563,0.273437 C 16.484375,17.257812 17.070312,16.65625 17.601562,16 c 0.0039,-0.0078 -0.0039,-0.02344 -0.0078,-0.03125 -0.378906,0.296875 -0.761719,0.597656 -1.144531,0.894531 -0.01563,-0.01563 -0.03516,-0.03125 -0.05078,-0.04687 0.285156,-0.355468 0.574218,-0.707031 0.863281,-1.058594 -0.0078,-0.0078 -0.01563,-0.01562 -0.01953,-0.01953 -0.375,0.375 -0.75,0.75 -1.125,1.125 -0.0039,-0.0039 -0.0078,-0.0039 -0.0078,-0.0078 0.308594,-0.363281 0.617187,-0.726563 0.929687,-1.089844 -0.01172,-0.0078 -0.02344,-0.01953 -0.03516,-0.02734 -0.171875,0.175781 -0.359375,0.347657 -0.519531,0.535157 -0.464844,0.542968 -1.027344,0.929687 -1.722656,1.105468 -0.652344,0.164063 -1.203125,0.0039 -1.628907,-0.53125 -0.08203,-0.105468 -0.164062,-0.207031 -0.25,-0.308594 z M 9.746094,13.136719 c -0.00781,0 -0.015625,0.0039 -0.027344,0.0039 0,0.257813 -0.039062,0.519531 0.011719,0.765625 0.128906,0.628906 0.472656,1.152344 0.9375,1.59375 0.06641,0.0625 0.15625,0.125 0.246093,0.144531 0.246094,0.05469 0.472657,0.02734 0.441407,-0.320312 -0.0078,-0.101563 -0.0039,-0.207031 -0.01563,-0.308594 -0.04297,-0.367187 -0.210938,-0.507813 -0.578125,-0.476563 -0.1875,0.01563 -0.289063,-0.06641 -0.339844,-0.226562 -0.03125,-0.09766 -0.04297,-0.199219 -0.05078,-0.300781 -0.01172,-0.117188 -0.0039,-0.234375 -0.0039,-0.351563 -0.01172,-0.0039 -0.02734,-0.0078 -0.04297,-0.01172 -0.101563,0.15625 -0.203125,0.3125 -0.304688,0.46875 -0.023437,-0.0078 -0.046875,-0.01172 -0.070312,-0.01953 0.0625,-0.34375 0.125,-0.691406 0.195312,-1.078125 -0.144531,0.07422 -0.257812,0.128907 -0.375,0.191407 -0.00391,-0.01563 -0.015625,-0.04688 -0.023437,-0.07422 z m 11.664062,8.011719 c -0.320312,-0.601563 -0.671875,-1.246094 -1.019531,-1.894532 -0.01953,0.0078 -0.03906,0.01953 -0.05859,0.02734 0.164063,0.5 0.265625,1.023438 0.585938,1.460938 0.253906,0.339843 0.40625,0.722656 0.4375,1.152343 0.01563,0.1875 0.02344,0.375 0.03906,0.601563 0.183594,-0.519532 0.195313,-1.015625 0.136719,-1.554688 0.316406,0.609375 0.507812,1.195313 0.210938,1.835938 0.445312,-0.507813 0.480468,-1.550782 0.105468,-2.117188 0.02734,0.230469 0.05859,0.464844 0.08984,0.707032 -0.164062,-0.460938 -0.355469,-0.898438 -0.667969,-1.308594 0.05469,0.40625 0.101563,0.78125 0.140625,1.089844 z m -1.042968,-4.476563 c -0.01563,0.01953 -0.03125,0.03516 -0.05078,0.05469 -0.292968,-0.238281 -0.585937,-0.476562 -0.914062,-0.742187 0.03125,0.05469 0.04297,0.07422 0.05469,0.09375 0.308594,0.40625 0.609375,0.820313 0.925781,1.222656 0.08984,0.121094 0.222657,0.210938 0.359376,0.335938 0,-0.07422 0,-0.09766 0,-0.128907 0.738281,0.386719 1.457031,0.320313 1.9375,-0.164062 -0.0039,-0.0039 -0.01172,-0.0078 -0.01563,-0.0078 -0.02344,0.0078 -0.04297,0.01172 -0.0625,0.02344 -0.421874,0.210937 -0.84375,0.207031 -1.238281,-0.05469 -0.246093,-0.164063 -0.472656,-0.355469 -0.691406,-0.546876 -0.355469,-0.3125 -0.699219,-0.640624 -1.046875,-0.960937 -0.0078,0.01172 -0.01953,0.01953 -0.02734,0.03125 0.257813,0.285156 0.511719,0.566406 0.769532,0.84375 z M 9.503906,5.261719 c 0.011719,0.046875 0.015625,0.066406 0.023438,0.085937 0.175781,0.34375 0.21875,0.710938 0.21875,1.085938 0,0.613281 -0.253906,1.09375 -0.773438,1.425781 C 8.59375,8.101562 8.234375,8.023438 7.992188,7.640625 7.921875,7.527344 7.84375,7.414062 7.816406,7.289062 7.726562,6.894531 7.648438,6.5 7.585938,6.105469 7.550781,5.875 7.523438,5.792969 7.359375,5.722656 7.378906,5.8125 7.398438,5.898438 7.417969,5.980469 7.359375,5.953125 7.324219,5.914062 7.292969,5.875 7.257812,5.832031 7.230469,5.785156 7.199219,5.742188 7.1875,5.757812 7.171875,5.769531 7.160156,5.78125 7.402344,6.089844 7.492188,6.457031 7.585938,6.828125 7.652344,7.101562 7.730469,7.378906 7.855469,7.628906 8.0625,8.050781 8.535156,8.234375 8.976562,8.058594 c 1.0625,-0.417969 1.363282,-1.78125 0.527344,-2.796875 z m 3.117188,-1.25 c 0.558594,0.546875 0.546875,1.398437 -0.03516,1.914062 C 12.238281,6.234375 11.820312,6.371094 11.359375,6.390625 10.539062,6.425781 9.855469,5.769531 9.863281,4.945312 9.867188,4.769531 9.894531,4.59375 9.910156,4.398438 c -0.167968,0.125 -0.203125,0.292968 -0.195312,0.46875 0.070312,1.128906 0.917968,1.769531 1.957031,1.691406 0.4375,-0.035156 0.859375,-0.152344 1.121094,-0.539063 0.269531,-0.398437 0.382812,-0.851562 0.324219,-1.324219 -0.03516,-0.308593 -0.1875,-0.5625 -0.496094,-0.683593 z m -2.796875,8.183593 c 0.5625,0.125 0.90625,0.472657 1.113281,0.96875 0.07813,0.191407 0.08594,0.378907 -0.0078,0.578126 -0.160157,0.316406 0.01953,0.636718 0.339843,0.699218 0,-0.378906 0.03125,-0.765625 -0.0039,-1.148437 C 11.222656,12.863281 11,12.507812 10.667969,12.230469 10.410156,12.015625 10.148438,12.007812 9.824219,12.195312 Z M 16.53125,5.261719 c -0.140625,0.1875 -0.277344,0.382812 -0.429688,0.566406 -0.06641,0.078125 -0.0625,0.125 -0.0078,0.199219 0.15625,0.230468 0.308594,0.464844 0.460938,0.695312 0.03906,-0.027344 0.08984,-0.0625 0.148437,-0.101562 0.02344,0.074218 0.04297,0.128906 0.05469,0.160156 C 16.871094,6.515625 16.988281,6.246094 17.113281,5.960938 16.929688,5.742188 16.726562,5.496094 16.53125,5.261719 Z m 4.066406,17.574219 c 0.417969,-1.550782 -0.03125,-2.886719 -1.011718,-4.136719 0.535156,1.355469 1.160156,2.652343 1.011718,4.136719 z m -9.796875,-5.996094 c -0.429687,0.785156 -0.367187,1.636718 -0.453125,2.460937 0.332032,-0.78125 0.589844,-1.574219 0.453125,-2.460937 z m 8.492188,5.703125 c -0.02734,-0.03516 -0.03906,-0.05469 -0.05078,-0.06641 -0.328126,-0.328124 -0.605469,-0.6875 -0.734376,-1.144531 -0.03906,-0.132812 -0.109374,-0.253906 -0.179687,-0.371093 -0.246094,-0.410157 -0.382813,-0.84375 -0.308594,-1.328126 0.0078,-0.05859 0.0078,-0.117187 0.01172,-0.207031 -0.484375,0.980469 0.464844,2.757813 1.261719,3.117188 z M 17.398438,6.878906 c 0.621093,0.113282 1.222656,0.21875 1.828124,0.328125 C 19.117188,7.089844 18.996094,7 18.863281,6.945312 18.539062,6.8125 18.210938,6.691406 17.882812,6.578125 17.554688,6.464844 17.554688,6.472656 17.433594,6.785156 17.421875,6.8125 17.410156,6.839844 17.398438,6.878906 Z M 11.296875,7.621094 C 11.613281,7.488281 11.933594,7.351562 12.25,7.214844 c 0.0039,0.015625 0.01172,0.027344 0.01953,0.042968 -0.21875,0.148438 -0.433593,0.296876 -0.683593,0.46875 0.578124,-0.167968 1.113281,-0.324218 1.65625,-0.480468 -0.273438,-0.257813 -0.300782,-0.269532 -0.636719,-0.199219 -0.476563,0.101563 -0.902344,0.3125 -1.308593,0.574219 z m -0.664063,0.578125 c 0.04688,-0.183594 0.08594,-0.359375 0.132813,-0.53125 0.04687,-0.167969 0.09766,-0.332031 0.144531,-0.5 -0.01563,-0.00781 -0.03125,-0.015625 -0.04297,-0.019531 -0.105469,0.179687 -0.214844,0.355468 -0.320313,0.535156 -0.02344,-0.121094 0,-0.226563 0.0039,-0.332032 0.0039,-0.0625 -0.0039,-0.152343 -0.04297,-0.191406 -0.08984,-0.09375 -0.199218,-0.164062 -0.296874,-0.242187 -0.105469,0.140625 -0.160157,0.332031 -0.04297,0.53125 0.140625,0.25 0.296875,0.488281 0.464843,0.75 z M 7.957031,8.085938 C 8.316406,8.738281 9.125,8.636719 9.425781,8.230469 9.632812,7.949219 9.8125,7.652344 10.003906,7.359375 10.03125,7.316406 10.039062,7.261719 10.074219,7.167969 9.851562,7.453125 9.683594,7.714844 9.472656,7.933594 9.015625,8.410156 8.488281,8.449219 7.957031,8.085938 Z M 13.222656,6.5625 c -0.08594,-0.015625 -0.160156,-0.03125 -0.25,-0.046875 0.03125,0.078125 0.05469,0.128906 0.08203,0.195313 -0.08594,0.00391 -0.152344,0.00781 -0.230469,0.011718 0.21875,0.125 0.421875,0.238282 0.652343,0.371094 -0.0625,-0.171875 -0.117187,-0.320312 -0.175781,-0.484375 0.03125,-0.042969 0.07813,-0.105469 0.121094,-0.171875 0.195313,-0.273438 0.195313,-0.273438 -0.09766,-0.441406 -0.0078,-0.00391 -0.02344,0 -0.02344,0 -0.242187,0.15625 -0.07813,0.367187 -0.07813,0.566406 z m 6.078125,6.105469 c 0.335938,0.308593 0.71875,0.445312 1.15625,0.4375 0.05078,0 0.105469,-0.05078 0.160157,-0.07813 -0.04688,-0.0625 -0.08594,-0.164063 -0.144532,-0.175782 -0.382812,-0.07422 -0.769531,-0.121093 -1.171875,-0.183593 z M 9.511719,6.957031 C 9.761719,6.546875 9.613281,5.75 9.25,5.535156 9.332031,6.003906 9.425781,6.492188 9.511719,6.957031 Z M 9.5625,4.792969 C 9.605469,4.550781 9.703125,4.339844 9.652344,4.179688 9.601562,4.015625 9.402344,3.902344 9.25,3.75 9.164062,4.175781 9.394531,4.445312 9.5625,4.792969 Z m 11.335938,7.734375 c -0.171876,-0.4375 -1.023438,-0.636719 -1.390626,-0.351563 0.445313,-0.02344 0.859376,0.03906 1.214844,0.308594 0.03906,0.03125 0.09766,0.02734 0.175782,0.04297 z M 20.082031,6.199219 c 0.0039,0.00781 0.01172,0.019531 0.01563,0.03125 -0.15625,0.183593 -0.3125,0.367187 -0.457031,0.539062 0.144531,0.089844 0.3125,0.308594 0.382813,0.605469 0.0078,-0.160156 0,-0.3125 -0.04297,-0.453125 -0.04687,-0.15625 -0.05859,-0.292969 0.02734,-0.441406 0.04688,-0.082031 0.05078,-0.1875 0.07422,-0.28125 z m -7.222656,11.464843 c 0.01563,-0.0078 0.03516,-0.01953 0.05078,-0.02734 -0.148437,-0.242188 -0.304687,-0.480469 -0.445312,-0.726563 -0.08203,-0.144531 -0.160156,-0.296875 -0.203125,-0.457031 -0.05078,-0.183594 -0.06641,-0.378906 -0.09375,-0.566406 0.0078,0.683593 0.121093,1.324219 0.691406,1.777343 z M 12.828125,4.996094 C 12.871094,4.773438 12.808594,4.59375 12.652344,4.453125 12.609375,4.414062 12.515625,4.402344 12.460938,4.425781 c -0.03906,0.015625 -0.06641,0.105469 -0.0625,0.160157 0.0078,0.214843 0.175781,0.375 0.429687,0.410156 z m -1.375,12.457031 C 11.417969,17 11.382812,16.527344 11.351562,16.074219 c -0.195312,0.335937 -0.132812,1.085937 0.101563,1.378906 z m 5.941406,2.855469 c 0.06641,-0.296875 0.121094,-0.597656 0.203125,-0.890625 0.08203,-0.285157 0.195313,-0.5625 0.292969,-0.84375 -0.339844,0.527343 -0.566406,1.085937 -0.496094,1.734375 z m -4.4375,-17.421875 c -0.0625,0.363281 -0.03125,0.480469 0.183594,0.777343 0.238281,-0.101562 0.28125,-0.214843 0.167969,-0.4375 -0.04687,0.058594 -0.09375,0.117188 -0.144532,0.183594 -0.07422,-0.183594 -0.140624,-0.355468 -0.207031,-0.523437 z m 5.097657,18.703125 C 17.941406,21.0625 17.6875,20.566406 17.738281,20.007812 17.625,20.582031 17.722656,21.113281 18.054688,21.589844 Z M 12.527344,3.742188 c 0.207031,0.191406 0.394531,0.363281 0.585937,0.535156 -0.0078,-0.390625 -0.210937,-0.585938 -0.585937,-0.535156 z m 9.640625,13.558593 c -0.449219,0.05078 -0.824219,-0.167969 -1.203125,-0.351562 0.363281,0.253906 0.695312,0.597656 1.203125,0.351562 z M 17.175781,3.308594 c -0.21875,0.265625 -0.488281,0.457031 -0.5,0.796875 0.160157,-0.175781 0.320313,-0.355469 0.5,-0.546875 0,-0.042969 0,-0.121094 0,-0.25 z M 13.222656,4.34375 c 0.132813,-0.269531 0.261719,-0.535156 0.40625,-0.832031 -0.289062,0.105469 -0.425781,0.414062 -0.40625,0.832031 z M 9.539062,5.132812 C 9.476562,4.710938 9.320312,4.542969 9.050781,4.609375 9.226562,4.792969 9.382812,4.960938 9.539062,5.132812 Z m 12.902344,16.824219 c 0.160156,-0.402343 0.101563,-0.757812 -0.06641,-1.144531 0.01953,0.398438 0.04297,0.753906 0.06641,1.144531 z M 16.484375,1.625 c -0.0078,0.019531 -0.01953,0.035156 -0.02734,0.054688 0.02734,0.085937 0.05859,0.167968 0.08594,0.238281 0.136719,-0.035157 0.269531,-0.070313 0.402343,-0.105469 0,-0.011719 0,-0.023438 0,-0.035156 C 16.792969,1.726562 16.640625,1.675781 16.484375,1.625 Z m 3.371094,15.160156 c 0.0078,-0.01172 0.01953,-0.02344 0.03125,-0.03516 -0.183594,-0.164062 -0.363281,-0.332031 -0.542969,-0.5 -0.01172,0.01172 -0.02344,0.02344 -0.03516,0.03516 0.105468,0.253906 0.304687,0.398438 0.546875,0.5 z M 17.4375,6.3125 C 17.242188,6.417969 17.113281,6.570312 17.09375,6.839844 17.238281,6.726562 17.351562,6.632812 17.484375,6.527344 17.414062,6.5 17.371094,6.488281 17.316406,6.46875 17.363281,6.410156 17.402344,6.359375 17.4375,6.3125 Z m -2.050781,10.679688 c -0.320313,0.07812 -0.664063,0.160156 -0.988281,0.242187 0.355468,0.05078 0.703124,-0.02734 0.988281,-0.242187 z M 16.589844,3.0625 c -0.01172,0 -0.02344,0.00391 -0.03516,0.00391 0.03125,0.171875 0.0625,0.34375 0.09766,0.515625 0.01563,-0.00391 0.03516,-0.00391 0.05078,-0.00781 0.01563,-0.222657 0.03125,-0.445313 0.05078,-0.671875 -0.02344,0 -0.03906,0 -0.05859,-0.00391 -0.01172,0.089843 -0.02344,0.175781 -0.04297,0.296874 C 16.617188,3.125 16.605469,3.09375 16.589844,3.0625 Z m 0.953125,13.238281 c -0.300781,0.171875 -0.527344,0.40625 -0.65625,0.730469 0.21875,-0.242188 0.4375,-0.484375 0.65625,-0.730469 z m 0.597656,3.695313 c 0.04687,-0.382813 0.09375,-0.773438 0.140625,-1.179688 -0.140625,0.308594 -0.199219,0.820313 -0.140625,1.179688 z M 16.589844,4.074219 C 16.625,3.671875 16.523438,3.367188 16.34375,3.335938 c 0.08203,0.242187 0.164062,0.496093 0.246094,0.738281 z m 3.355468,0.921875 c 0.03516,-0.304688 -0.03125,-0.394532 -0.332031,-0.449219 0.121094,0.160156 0.214844,0.289063 0.332031,0.449219 z m -4.15625,1.273437 c 0.191407,0.164063 0.34375,0.296875 0.507813,0.441407 C 16.199219,6.417969 16.03125,6.25 15.789062,6.269531 Z m 4.105469,1.179688 C 19.828125,7.1875 19.695312,7.054688 19.425781,7.039062 c 0.175781,0.152344 0.328125,0.289063 0.46875,0.410157 z M 8.777344,9.039062 C 8.875,8.894531 8.964844,8.757812 9.046875,8.632812 8.78125,8.710938 8.722656,8.796875 8.777344,9.039062 Z m 4.457031,7.519532 c 0.175781,0.25 0.425781,0.335937 0.710937,0.375 -0.238281,-0.125 -0.46875,-0.246094 -0.710937,-0.375 z M 9.828125,7.9375 C 9.992188,8.046875 10.15625,8.15625 10.363281,8.289062 10.238281,8.035156 10.046875,7.964844 9.828125,7.9375 Z m 7.71875,8.761719 c 0.01563,0.01563 0.03516,0.03125 0.05078,0.04687 0.136719,-0.144532 0.273438,-0.292969 0.414063,-0.441406 -0.0078,-0.0039 -0.01563,-0.01172 -0.02344,-0.01953 -0.148437,0.136719 -0.292969,0.277344 -0.441406,0.414063 z M 20.253906,4.445312 c 0,-0.269531 -0.03516,-0.488281 -0.222656,-0.652343 0.07031,0.203125 0.140625,0.40625 0.222656,0.652343 z M 10.164062,8.4375 C 10.148438,8.410156 10.132812,8.382812 10.117188,8.359375 9.980469,8.449219 9.847656,8.539062 9.710938,8.632812 9.71875,8.644531 9.730469,8.660156 9.738281,8.675781 9.878906,8.597656 10.019531,8.515625 10.164062,8.4375 Z M 20.359375,3.492188 c -0.01563,0 -0.03516,0 -0.05078,0 0,0.160156 0,0.320312 0,0.480468 0.01563,0 0.03516,0 0.05078,0 0,-0.160156 0,-0.320312 0,-0.480468 z M 17.316406,6.121094 C 17.09375,6.191406 17.03125,6.378906 16.984375,6.574219 17.09375,6.421875 17.207031,6.269531 17.316406,6.121094 Z M 22.5,17.640625 C 22.769531,17.503906 22.960938,17.351562 23.089844,17.09375 22.890625,17.277344 22.710938,17.445312 22.5,17.640625 Z M 16.753906,3.570312 c 0.02344,0.00781 0.04687,0.015626 0.06641,0.023438 0.05859,-0.152344 0.113282,-0.300781 0.171876,-0.453125 C 16.972656,3.132812 16.949219,3.125 16.925781,3.117188 16.867188,3.265625 16.8125,3.417969 16.753906,3.570312 Z m 0.972656,12.777344 c 0.01563,0.01172 0.03125,0.01953 0.04688,0.03125 0.113281,-0.152344 0.222656,-0.308594 0.335937,-0.460937 -0.01172,-0.01172 -0.02734,-0.01953 -0.03906,-0.02734 -0.113281,0.152344 -0.226562,0.304687 -0.34375,0.457031 z M 20.609375,3.421875 c -0.01563,-0.00391 -0.03516,-0.00781 -0.05078,-0.011719 -0.03516,0.144532 -0.07422,0.292969 -0.113282,0.4375 0.02344,0.00391 0.04297,0.011719 0.06641,0.015625 0.03125,-0.144531 0.0625,-0.292969 0.09766,-0.441406 z M 16.378906,1.8125 c 0.0039,-0.027344 0.01172,-0.050781 0.01953,-0.078125 -0.08203,-0.019531 -0.167969,-0.070313 -0.242188,-0.054687 -0.08203,0.019531 -0.152344,0.09375 -0.230469,0.144531 0.01172,0.019531 0.01953,0.039062 0.03125,0.054687 0.11719,-0.160156 0.257815,-0.171875 0.421877,-0.066406 z m 0,0"
           fill-opacity="1"
           fill-rule="nonzero"
           id="path5" /></g><path
         fill="#10bd68"
         d="m 13.359375,11.808594 c 0.375,-0.445313 0.820313,-0.785156 1.378906,-0.960938 0.113281,-0.03516 0.253907,-0.03906 0.367188,-0.01172 0.480469,0.121093 0.953125,0.261718 1.433593,0.390624 0.148438,0.03906 0.308594,0.06641 0.460938,0.07031 0.308594,0.0078 0.550781,-0.113281 0.691406,-0.4375 0.04297,0.171875 0.08984,0.320313 0.105469,0.46875 0.0078,0.0625 -0.03516,0.152344 -0.08203,0.203125 -0.148438,0.160156 -0.144532,0.308594 -0.02344,0.480469 0.08203,0.121093 0.144532,0.261719 0.230469,0.429687 -0.261719,-0.05078 -0.492187,-0.09375 -0.730469,-0.140625 0,0.175781 0,0.34375 0,0.53125 -0.08594,-0.113281 -0.140625,-0.21875 -0.222656,-0.289062 -0.08203,-0.07031 -0.195312,-0.105469 -0.335938,-0.179688 0.08984,0.15625 0.148438,0.265625 0.210938,0.375 -0.01953,0.01172 -0.03516,0.02344 -0.05078,0.03906 -0.04687,-0.230469 -0.214844,-0.273438 -0.402344,-0.269532 -0.59375,0.01172 -1.191406,0.01563 -1.789063,0.05469 -0.21875,0.01563 -0.433593,0.125 -0.652343,0.203125 -0.09766,0.03516 -0.191407,0.08594 -0.304688,0.109375 0.01953,-0.02734 0.03906,-0.05078 0.07031,-0.08594 -0.136719,0.02344 -0.261719,0.04297 -0.386719,0.06641 -0.0039,-0.0078 -0.0039,-0.01953 -0.01172,-0.02734 0.117188,-0.06641 0.234375,-0.136719 0.386719,-0.226563 C 13.558594,12.5625 13.460938,12.53125 13.359375,12.5 c 0.3125,0.05469 0.554687,-0.109375 0.8125,-0.226562 0.242187,-0.105469 0.46875,-0.246094 0.71875,-0.339844 0.242187,-0.08984 0.503906,-0.140625 0.761719,-0.210938 -0.777344,-0.496094 -1.53125,-0.257812 -2.292969,0.08594 z m 0,0"
         fill-opacity="1"
         fill-rule="nonzero"
         id="path6" /><path
         fill="#10bd68"
         d="M 16.363281,12.722656 C 15.992188,13.078125 15.535156,13.011719 15.085938,13 c 0.222656,-0.03125 0.441406,-0.04687 0.65625,-0.09375 0.210937,-0.04687 0.414062,-0.121094 0.621093,-0.183594 z m 0,0"
         fill-opacity="1"
         fill-rule="nonzero"
         id="path7" /><path
         fill="#10bd68"
         d="m 10.269531,14.515625 c 0.210938,0.320313 0.457031,0.519531 0.789063,0.613281 -0.269532,0.152344 -0.675782,-0.144531 -0.789063,-0.613281 z m 0,0"
         fill-opacity="1"
         fill-rule="nonzero"
         id="path8" /><g
         clip-path="url(#0b80128809)"
         id="g33"><g
           transform="translate(32,5)"
           id="g32"><g
             clip-path="url(#cb90233b97)"
             id="g31"><g
               fill="#10bd68"
               fill-opacity="1"
               id="g11"><g
                 transform="translate(1.238448,17.787413)"
                 id="g10"><g
                   id="g9"><path
                     d="m 5.53125,0.265625 c -0.6875,0 -1.355469,-0.101563 -2,-0.296875 -0.636719,-0.207031 -1.199219,-0.539062 -1.6875,-1 -0.117188,0.324219 -0.242188,0.683594 -0.375,1.078125 C 1.332031,0.453125 1.15625,0.96875 0.9375,1.59375 H 0.859375 c 0.050781,-1.074219 0.09375,-2.046875 0.125,-2.921875 0.03125,-0.875 0.050781,-1.703125 0.0625,-2.484375 0.019531,-0.78125 0.03125,-1.566406 0.03125,-2.359375 0,-0.800781 0,-1.660156 0,-2.578125 v -0.171875 c 0,-0.644531 -0.03125,-1.125 -0.09375,-1.4375 -0.054687,-0.3125 -0.15625,-0.519531 -0.3125,-0.625 -0.15625,-0.101563 -0.386719,-0.15625 -0.6875,-0.15625 h -0.09375 V -11.1875 L 4.0625,-13.28125 4.109375,-13.25 c 0,0.21875 -0.00781,0.429688 -0.015625,0.625 -0.011719,0.199219 -0.015625,0.4375 -0.015625,0.71875 0,0.28125 0,0.65625 0,1.125 0,0.460938 0,1.078125 0,1.859375 v 0.71875 l -0.0625,1.109375 H 4.03125 c 0.300781,-0.351562 0.648438,-0.695312 1.046875,-1.03125 0.394531,-0.34375 0.8125,-0.625 1.25,-0.84375 0.445313,-0.226562 0.898437,-0.34375 1.359375,-0.34375 0.40625,0 0.804688,0.136719 1.203125,0.40625 0.394531,0.261719 0.722656,0.703125 0.984375,1.328125 0.257812,0.625 0.390625,1.460937 0.390625,2.5 0,1.085937 -0.214844,2.03125 -0.640625,2.84375 C 9.195312,-1.429688 8.625,-0.8125 7.90625,-0.375 7.1875,0.0507812 6.394531,0.265625 5.53125,0.265625 Z M 5.671875,0.125 c 0.28125,0 0.523437,-0.09375 0.734375,-0.28125 0.207031,-0.195312 0.367188,-0.546875 0.484375,-1.046875 0.113281,-0.5 0.171875,-1.226563 0.171875,-2.1875 0,-1.457031 -0.179688,-2.476563 -0.53125,-3.0625 -0.355469,-0.582031 -0.808594,-0.875 -1.359375,-0.875 -0.136719,0 -0.296875,0.023437 -0.484375,0.0625 C 4.507812,-7.234375 4.296875,-7.144531 4.046875,-7 v 3.890625 c 0,0.792969 0.082031,1.429687 0.25,1.90625 C 4.472656,-0.722656 4.6875,-0.378906 4.9375,-0.171875 5.1875,0.0234375 5.429688,0.125 5.671875,0.125 Z m 0,0"
                     id="path9" /></g></g></g><g
               fill="#10bd68"
               fill-opacity="1"
               id="g14"><g
                 transform="translate(11.309428,17.787413)"
                 id="g13"><g
                   id="g12"><path
                     d="M 4.375,0.265625 C 3.6875,0.265625 3.039062,0.101562 2.4375,-0.21875 1.832031,-0.550781 1.335938,-1.03125 0.953125,-1.65625 0.566406,-2.28125 0.375,-3.046875 0.375,-3.953125 0.375,-4.929688 0.535156,-5.757812 0.859375,-6.4375 1.191406,-7.113281 1.601562,-7.660156 2.09375,-8.078125 2.582031,-8.503906 3.078125,-8.8125 3.578125,-9 c 0.507813,-0.1875 0.945313,-0.28125 1.3125,-0.28125 0.96875,0 1.769531,0.183594 2.40625,0.546875 0.644531,0.367187 1.039063,0.945313 1.1875,1.734375 l -0.21875,0.234375 H 3.34375 c -0.011719,0.125 -0.015625,0.257813 -0.015625,0.390625 0,0.136719 0,0.273438 0,0.40625 0,0.9375 0.113281,1.699219 0.34375,2.28125 0.226563,0.574219 0.535156,0.992188 0.921875,1.25 0.382812,0.261719 0.8125,0.390625 1.28125,0.390625 0.226562,0 0.488281,-0.046875 0.78125,-0.140625 0.289062,-0.09375 0.566406,-0.269531 0.828125,-0.53125 0.269531,-0.257812 0.492187,-0.625 0.671875,-1.09375 0.175781,-0.476562 0.265625,-1.097656 0.265625,-1.859375 h 0.0625 C 8.578125,-3.734375 8.273438,-2.257812 7.578125,-1.25 6.878906,-0.238281 5.8125,0.265625 4.375,0.265625 Z m -1,-7.140625 2.46875,-0.359375 c 0.03125,-0.25 0.039062,-0.519531 0.03125,-0.8125 -0.011719,-0.289063 -0.089844,-0.539063 -0.234375,-0.75 C 5.492188,-9.015625 5.234375,-9.125 4.859375,-9.125 c -0.386719,0 -0.714844,0.167969 -0.984375,0.5 -0.273438,0.324219 -0.4375,0.90625 -0.5,1.75 z m 0,0"
                     id="path11" /></g></g></g><g
               fill="#10bd68"
               fill-opacity="1"
               id="g17"><g
                 transform="translate(19.742692,17.787413)"
                 id="g16"><g
                   id="g15"><path
                     d="m 3.65625,0.265625 c -0.917969,0 -1.585938,-0.26953125 -2,-0.8125 -0.417969,-0.550781 -0.625,-1.285156 -0.625,-2.203125 0,-0.414062 0.00781,-0.960938 0.03125,-1.640625 0.019531,-0.6875 0.046875,-1.425781 0.078125,-2.21875 0.03125,-0.789063 0.054687,-1.535156 0.078125,-2.234375 H 0.1875 v -0.1875 h 3.765625 v -3.375 h 0.1875 v 3.375 h 2.4375 v 0.1875 H 4.15625 c -0.011719,0.742188 -0.023438,1.390625 -0.03125,1.953125 0,0.554687 -0.00781,1.089844 -0.015625,1.609375 0,0.511719 0,1.085938 0,1.71875 0,0.554688 0.09375,0.945312 0.28125,1.171875 0.1875,0.230469 0.472656,0.34375 0.859375,0.34375 0.476562,0 0.847656,-0.164063 1.109375,-0.5 0.269531,-0.34375 0.445313,-0.9375 0.53125,-1.78125 H 6.96875 c -0.074219,0.917969 -0.214844,1.71875 -0.421875,2.40625 -0.210937,0.6875 -0.542969,1.226563 -1,1.609375 C 5.097656,0.0703125 4.46875,0.265625 3.65625,0.265625 Z m 0,0"
                     id="path14" /></g></g></g><g
               fill="#10bd68"
               fill-opacity="1"
               id="g20"><g
                 transform="translate(26.519414,17.787413)"
                 id="g19"><g
                   id="g18"><path
                     d="M 0.15625,0 V -0.109375 L 0.421875,-0.25 C 0.628906,-0.363281 0.789062,-0.503906 0.90625,-0.671875 1.03125,-0.835938 1.113281,-1.132812 1.15625,-1.5625 1.195312,-2 1.21875,-2.660156 1.21875,-3.546875 v -5.375 c 0,-0.644531 -0.03125,-1.125 -0.09375,-1.4375 -0.054688,-0.3125 -0.15625,-0.519531 -0.3125,-0.625 -0.15625,-0.101563 -0.386719,-0.15625 -0.6875,-0.15625 H 0.03125 V -11.1875 L 4.21875,-13.28125 4.25,-13.25 c 0,0.21875 -0.00781,0.429688 -0.015625,0.625 0,0.199219 0,0.4375 0,0.71875 0,0.28125 0,0.65625 0,1.125 0,0.460938 0,1.078125 0,1.859375 v 5.375 c 0,0.886719 0.019531,1.546875 0.0625,1.984375 0.050781,0.429688 0.128906,0.726562 0.234375,0.890625 0.101562,0.167969 0.25,0.308594 0.4375,0.421875 l 0.234375,0.140625 V 0 Z m 8.1875,0.125 C 8.039062,0.125 7.75,0.0625 7.46875,-0.0625 7.195312,-0.195312 6.921875,-0.441406 6.640625,-0.796875 6.359375,-1.160156 6.054688,-1.671875 5.734375,-2.328125 5.410156,-2.992188 5.050781,-3.863281 4.65625,-4.9375 v -0.078125 c 0.8125,-0.863281 1.515625,-1.59375 2.109375,-2.1875 0.59375,-0.601563 1.15625,-1.082031 1.6875,-1.4375 0.539063,-0.351563 1.113281,-0.570313 1.71875,-0.65625 l 0.03125,0.015625 -0.59375,4.125 H 9.5625 C 9.570312,-6.070312 9.328125,-6.664062 8.828125,-6.9375 8.335938,-7.207031 7.535156,-7.09375 6.421875,-6.59375 c 0.550781,1.03125 1,1.855469 1.34375,2.46875 0.34375,0.617188 0.617187,1.078125 0.828125,1.390625 0.21875,0.304687 0.40625,0.5 0.5625,0.59375 C 9.3125,-2.046875 9.476562,-2 9.65625,-2 c 0.132812,0 0.242188,-0.039062 0.328125,-0.125 0.09375,-0.09375 0.160156,-0.316406 0.203125,-0.671875 0.03906,-0.363281 0.03906,-0.960937 0,-1.796875 h 0.09375 C 10.35156,-3.570312 10.34766,-2.75 10.26562,-2.125 10.17968,-1.507812 10.039057,-1.035156 9.843745,-0.703125 9.644531,-0.367188 9.414062,-0.144531 9.15625,-0.03125 8.90625,0.0703125 8.632812,0.125 8.34375,0.125 Z m 0,0"
                     id="path17" /></g></g></g><g
               fill="#10bd68"
               fill-opacity="1"
               id="g23"><g
                 transform="translate(36.722166,17.787413)"
                 id="g22"><g
                   id="g21"><path
                     d="m 4.421875,-2.78125 c 0,0.773438 0.015625,1.355469 0.046875,1.75 0.03125,0.386719 0.117188,0.640625 0.265625,0.765625 0.144531,0.117187 0.375,0.171875 0.6875,0.171875 h 0.28125 V 0 H 0.09375 v -0.09375 h 0.328125 c 0.320313,0 0.550781,-0.054688 0.6875,-0.171875 0.132813,-0.125 0.21875,-0.378906 0.25,-0.765625 0.03125,-0.394531 0.046875,-0.976562 0.046875,-1.75 v -2.1875 c 0,-0.644531 -0.027344,-1.125 -0.078125,-1.4375 C 1.273438,-6.71875 1.164062,-6.925781 1,-7.03125 0.84375,-7.132812 0.613281,-7.1875 0.3125,-7.1875 H 0.21875 V -7.234375 L 4.40625,-9.3125 4.4375,-9.296875 c 0,0.21875 -0.00781,0.429687 -0.015625,0.625 0,0.199219 0,0.4375 0,0.71875 0,0.28125 0,0.65625 0,1.125 0,0.460937 0,1.078125 0,1.859375 z M 2.59375,-10.203125 c -0.367188,-0.125 -0.65625,-0.335937 -0.875,-0.640625 -0.210938,-0.3125 -0.3125,-0.671875 -0.3125,-1.078125 0,-0.488281 0.164062,-0.898437 0.5,-1.234375 0.34375,-0.34375 0.785156,-0.515625 1.328125,-0.515625 0.550781,0 0.992187,0.171875 1.328125,0.515625 0.332031,0.335938 0.5,0.746094 0.5,1.234375 0,0.167969 -0.015625,0.320313 -0.046875,0.453125 z m 0,0"
                     id="path20" /></g></g></g><g
               fill="#10bd68"
               fill-opacity="1"
               id="g26"><g
                 transform="translate(41.955293,17.787413)"
                 id="g25"><g
                   id="g24"><path
                     d="m 0.09375,0 v -0.03125 l 0.265625,-0.0625 C 0.597656,-0.144531 0.78125,-0.203125 0.90625,-0.265625 1.039062,-0.335938 1.140625,-0.457031 1.203125,-0.625 c 0.0625,-0.175781 0.101563,-0.429688 0.125,-0.765625 0.019531,-0.34375 0.03125,-0.804687 0.03125,-1.390625 v -2.359375 c 0,-0.59375 -0.039063,-1.03125 -0.109375,-1.3125 C 1.1875,-6.742188 1.070312,-6.9375 0.90625,-7.03125 0.75,-7.132812 0.535156,-7.1875 0.265625,-7.1875 H 0.171875 V -7.234375 L 4.3125,-9.3125 h 0.015625 v 2.21875 H 4.34375 c 0.675781,-0.738281 1.34375,-1.289062 2,-1.65625 0.664062,-0.375 1.242188,-0.5625 1.734375,-0.5625 0.65625,0 1.132813,0.1875 1.4375,0.5625 0.3125,0.367188 0.46875,0.964844 0.46875,1.796875 v 4.171875 c 0,0.585938 0.00391,1.046875 0.015625,1.390625 0.01953,0.335937 0.0625,0.589844 0.125,0.765625 0.0625,0.167969 0.160156,0.289062 0.296875,0.359375 0.132813,0.0625 0.320313,0.121094 0.5625,0.171875 l 0.25,0.0625 V 0 Z m 5.578125,-0.109375 c 0.382813,0 0.664063,-0.046875 0.84375,-0.140625 0.1875,-0.09375 0.304687,-0.328125 0.359375,-0.703125 0.0625,-0.382813 0.09375,-0.992187 0.09375,-1.828125 v -3.3125 c 0,-0.476562 -0.089844,-0.8125 -0.265625,-1 C 6.535156,-7.28125 6.226562,-7.375 5.78125,-7.375 5.5,-7.375 5.238281,-7.335938 5,-7.265625 4.769531,-7.191406 4.5625,-7.101562 4.375,-7 v 4.21875 c 0,0.835938 0.03125,1.445312 0.09375,1.828125 0.0625,0.375 0.179688,0.609375 0.359375,0.703125 0.1875,0.09375 0.46875,0.140625 0.84375,0.140625 z m 0,0"
                     id="path23" /></g></g></g><g
               clip-path="url(#c673f20cdd)"
               id="g30"><g
                 fill="#10bd68"
                 fill-opacity="1"
                 id="g29"><g
                   transform="translate(52.628651,17.787413)"
                   id="g28"><g
                     id="g27"><path
                       d="M 7.359375,2.078125 C 7.367188,1.992188 7.375,1.878906 7.375,1.734375 c 0,-0.136719 0,-0.308594 0,-0.515625 0,-0.1875 -0.027344,-0.335938 -0.078125,-0.4375 C 7.242188,0.675781 7.101562,0.59375 6.875,0.53125 6.65625,0.46875 6.304688,0.425781 5.828125,0.40625 5.347656,0.382812 4.679688,0.375 3.828125,0.375 3.085938,0.375 2.5,0.335938 2.0625,0.265625 1.625,0.203125 1.300781,0.109375 1.09375,-0.015625 0.894531,-0.148438 0.765625,-0.300781 0.703125,-0.46875 c -0.0625,-0.175781 -0.09375,-0.359375 -0.09375,-0.546875 0,-0.195313 0.03125,-0.394531 0.09375,-0.59375 0.0625,-0.207031 0.175781,-0.46875 0.34375,-0.78125 C 1.222656,-2.710938 1.476562,-3.160156 1.8125,-3.734375 1.269531,-3.960938 0.863281,-4.285156 0.59375,-4.703125 0.320312,-5.128906 0.1875,-5.617188 0.1875,-6.171875 c 0,-0.96875 0.347656,-1.726563 1.046875,-2.28125 C 1.941406,-9.015625 2.90625,-9.300781 4.125,-9.3125 h 4.609375 v 0.015625 c -0.304687,0.125 -0.605469,0.246094 -0.90625,0.359375 -0.304687,0.105469 -0.605469,0.226562 -0.90625,0.359375 0.707031,0.511719 1.0625,1.265625 1.0625,2.265625 0,0.855469 -0.355469,1.570312 -1.0625,2.140625 -0.710937,0.5625 -1.679687,0.84375 -2.90625,0.84375 -0.429687,0 -0.820313,-0.03125 -1.171875,-0.09375 -0.355469,-0.0625 -0.671875,-0.148437 -0.953125,-0.265625 -0.023437,0.0625 -0.03125,0.125 -0.03125,0.1875 0,0.0625 0,0.132812 0,0.203125 0,0.21875 0.023437,0.390625 0.078125,0.515625 0.050781,0.125 0.203125,0.214844 0.453125,0.265625 0.25,0.042969 0.675781,0.0625 1.28125,0.0625 1.34375,0 2.367187,0.027344 3.078125,0.078125 0.71875,0.042969 1.210938,0.15625 1.484375,0.34375 0.269531,0.1875 0.40625,0.5 0.40625,0.9375 0,0.199219 -0.039063,0.421875 -0.109375,0.671875 C 8.46875,-0.179688 8.347656,0.132812 8.171875,0.53125 7.992188,0.925781 7.738281,1.445312 7.40625,2.09375 Z M 4.40625,-3.46875 c 0.269531,0 0.476562,-0.132812 0.625,-0.40625 C 5.175781,-4.15625 5.25,-4.644531 5.25,-5.34375 c 0,-0.757812 -0.070312,-1.425781 -0.203125,-2 C 4.910156,-7.914062 4.726562,-8.363281 4.5,-8.6875 c -0.230469,-0.332031 -0.480469,-0.5 -0.75,-0.5 -0.273438,0 -0.480469,0.140625 -0.625,0.421875 -0.136719,0.273437 -0.203125,0.757813 -0.203125,1.453125 0,0.75 0.066406,1.417969 0.203125,2 0.132812,0.585938 0.316406,1.039062 0.546875,1.359375 0.226563,0.324219 0.472656,0.484375 0.734375,0.484375 z m 0,0"
                       id="path26" /></g></g></g></g></g></g></g></g></g></svg>
